<svg width="241" height="85" viewBox="0 0 241 85" fill="none" xmlns="http://www.w3.org/2000/svg">
<path d="M95.0088 77.6846C94.9587 78.8193 94.6396 79.6784 94.0518 80.2617C93.4639 80.8451 92.6344 81.1367 91.5635 81.1367C90.4378 81.1367 89.5742 80.7676 88.9727 80.0293C88.3757 79.2865 88.0771 78.2292 88.0771 76.8574V75.1826C88.0771 73.8154 88.387 72.7627 89.0068 72.0244C89.6266 71.2816 90.488 70.9102 91.5908 70.9102C92.6755 70.9102 93.498 71.2132 94.0586 71.8193C94.6237 72.4255 94.945 73.2959 95.0225 74.4307H93.0059C92.9876 73.7288 92.8783 73.2458 92.6777 72.9814C92.4818 72.7126 92.1195 72.5781 91.5908 72.5781C91.0531 72.5781 90.6725 72.7673 90.4492 73.1455C90.2259 73.5192 90.1074 74.1367 90.0938 74.998V76.8779C90.0938 77.8669 90.2031 78.5459 90.4219 78.915C90.6452 79.2842 91.0257 79.4688 91.5635 79.4688C92.0921 79.4688 92.4567 79.3411 92.6572 79.0859C92.8577 78.8262 92.9717 78.359 92.999 77.6846H95.0088ZM101.12 71.0469H103.13V81H101.12V74.4102L98.1875 81H96.1709V71.0469H98.1875V77.6436L101.12 71.0469ZM110.978 72.7217H108.517V81H106.5V72.7217H104.08V71.0469H110.978V72.7217ZM117.007 71.0469H119.017V81H117.007V74.4102L114.074 81H112.058V71.0469H114.074V77.6436L117.007 71.0469ZM127.726 71.0469V81H125.709V72.7217H123.863L123.727 76.249C123.672 77.4111 123.54 78.334 123.33 79.0176C123.125 79.6966 122.822 80.1956 122.421 80.5146C122.024 80.8337 121.489 80.9954 120.814 81H120.322V79.332L120.555 79.3115C120.974 79.2614 121.275 78.988 121.457 78.4912C121.644 77.9899 121.76 77.1058 121.806 75.8389L121.936 71.0469H127.726ZM134.22 71.0469H136.229V81H134.22V74.4102L131.287 81H129.271V71.0469H131.287V77.6436L134.22 71.0469ZM144.815 81H142.812V76.7412H139.846V81H137.836V71.0469H139.846V75.0732H142.812V71.0469H144.815V81ZM149.334 76.9395H148.459V81H146.449V71.0469H148.459V75.0254H149.136L150.865 71.0469H153.312L150.879 75.6816L153.586 81H151.193L149.334 76.9395Z" fill="#0288D1"/>
<path fill-rule="evenodd" clip-rule="evenodd" d="M186.302 38.4134H184.64V26.1339C184.64 22.0742 181.414 18.7161 177.406 18.7161H168.216C164.257 18.7161 160.982 22.0742 160.982 26.1339V38.4134H158V42.2726H186.938L186.302 38.4134ZM180.876 38.4134H164.746V26.1339C164.746 24.1792 166.31 22.5754 168.216 22.5754H177.406C179.312 22.5754 180.876 24.1792 180.876 26.1339V38.4134V38.4134Z" fill="#0288D1"/>
<path fill-rule="evenodd" clip-rule="evenodd" d="M198.425 18.7161C192.999 18.7161 188.551 23.277 188.551 28.8404V32.0982C188.551 37.6616 192.95 42.2225 198.425 42.2225H202.971C208.397 42.2225 212.845 37.6616 212.845 32.0982V28.8404C212.845 23.277 208.397 18.7161 202.971 18.7161H198.425ZM192.315 32.0982V28.8404C192.315 25.3821 195.101 22.5252 198.474 22.5252H203.02C206.392 22.5252 209.179 25.332 209.179 28.8404V32.0982C209.179 35.5565 206.441 38.4134 203.02 38.4134H198.474C195.052 38.4134 192.315 35.5565 192.315 32.0982Z" fill="#0288D1"/>
<path fill-rule="evenodd" clip-rule="evenodd" d="M219.982 19.2674L228.585 29.091L237.188 19.2674C237.725 18.7161 238.508 18.5657 239.192 18.8163C239.925 19.117 240.365 19.8187 240.365 20.6207V42.2225H236.601C236.601 42.2225 236.601 30.6447 236.601 25.2317L228.536 34.504L220.47 25.2317C220.47 30.6948 220.47 42.2225 220.47 42.2225H216.755V20.6207C216.755 19.8187 217.195 19.117 217.88 18.8163C218.662 18.5156 219.395 18.7161 219.982 19.2674Z" fill="#0288D1"/>
<path fill-rule="evenodd" clip-rule="evenodd" d="M37.3943 18.8664C31.9685 18.8664 27.5203 23.4274 27.5203 28.9907V32.2485C27.5203 37.8119 31.9196 42.3728 37.3943 42.3728H41.8914C47.3661 42.3728 51.8143 37.8119 51.8143 32.2485V28.9907C51.8143 23.4274 47.3661 18.8664 41.8914 18.8664H37.3943ZM31.2841 32.2485V28.9907C31.2841 25.5324 34.0704 22.6756 37.4432 22.6756H41.9403C45.362 22.6756 48.0993 25.4823 48.0993 28.9907V32.2485C48.0993 35.7068 45.362 38.5637 41.9403 38.5637H37.4432C34.0704 38.5637 31.2841 35.757 31.2841 32.2485Z" fill="#0288D1"/>
<path fill-rule="evenodd" clip-rule="evenodd" d="M3.17729 19.2674L11.7804 29.091L20.3835 19.2674C20.9212 18.7161 21.7033 18.5658 22.4365 18.8164C23.1209 19.1171 23.5608 19.8188 23.5608 20.6207V42.2225H19.797C19.797 42.2225 19.797 30.6447 19.797 25.2317L11.7804 34.504L3.76387 25.2317C3.76387 30.6949 3.76387 42.2225 3.76387 42.2225H0V20.6207C0 19.8188 0.439932 19.1171 1.17315 18.8164C1.85749 18.5658 2.68848 18.7161 3.17729 19.2674Z" fill="#0288D1"/>
<path fill-rule="evenodd" clip-rule="evenodd" d="M59.4887 35.6567C59.4887 30.2437 59.4887 18.666 59.4887 18.666H55.7737V40.2678C55.7737 41.0697 56.2136 41.7714 56.898 42.0721C57.5823 42.3728 58.4133 42.1724 58.9021 41.621C58.9021 41.621 70.9758 29.7425 75.5706 25.2317C75.5706 30.6447 75.5706 42.2225 75.5706 42.2225H79.3345V20.6206C79.3345 19.8688 78.8946 19.1672 78.2102 18.8664C77.477 18.5657 76.6949 18.7161 76.1572 19.3175" fill="#0288D1"/>
<path fill-rule="evenodd" clip-rule="evenodd" d="M72.0511 15.8593L72.7355 12C68.1406 12 67.7007 12 63.1059 12L62.4215 15.8593C67.0164 15.8593 67.4074 15.8593 72.0511 15.8593Z" fill="#0288D1"/>
<path fill-rule="evenodd" clip-rule="evenodd" d="M119.138 0.195366C119.683 -0.0651219 120.317 -0.0651219 120.862 0.195366L145.862 12.1389C146.557 12.471 147 13.173 147 13.9435V38C147 39.2018 146.567 40.4464 145.977 41.5972C145.371 42.7799 144.515 44.0256 143.481 45.2714C141.411 47.7643 138.513 50.3909 135.111 52.6631C128.955 56.7749 123.524 59.4791 121.318 60.5777C121.16 60.656 121.019 60.7262 120.896 60.7882C120.332 61.0706 119.668 61.0706 119.104 60.7882C118.981 60.7262 118.84 60.656 118.682 60.5777C116.476 59.4791 111.045 56.7749 104.889 52.6631C101.487 50.3909 98.5894 47.7643 96.5191 45.2714C95.4846 44.0256 94.6291 42.7799 94.023 41.5972C93.4333 40.4464 93 39.2018 93 38V13.9435C93 13.173 93.4426 12.471 94.1379 12.1389L119.138 0.195366ZM97 15.2045V38C97 38.2982 97.1277 38.8848 97.5828 39.773C98.0216 40.6293 98.695 41.6305 99.5964 42.7159C101.398 44.8854 104 47.2588 107.111 49.3369C112.656 53.041 117.59 55.5605 120 56.765C122.41 55.5605 127.344 53.041 132.889 49.3369C136 47.2588 138.602 44.8854 140.404 42.7159C141.305 41.6305 141.978 40.6293 142.417 39.773C142.872 38.8848 143 38.2982 143 38V15.2045L120 4.21652L97 15.2045Z" fill="#0288D1"/>
<path fill-rule="evenodd" clip-rule="evenodd" d="M120 19C113.925 19 109 23.9249 109 30C109 36.0751 113.925 41 120 41C126.075 41 131 36.0751 131 30C131 23.9249 126.075 19 120 19ZM105 30C105 21.7157 111.716 15 120 15C128.284 15 135 21.7157 135 30C135 38.2843 128.284 45 120 45C111.716 45 105 38.2843 105 30Z" fill="#0288D1"/>
<path fill-rule="evenodd" clip-rule="evenodd" d="M119 24C119 22.8954 119.895 22 121 22C124.866 22 128 25.134 128 29C128 30.1046 127.105 31 126 31C124.895 31 124 30.1046 124 29C124 27.3431 122.657 26 121 26C119.895 26 119 25.1046 119 24Z" fill="#0288D1"/>
<path d="M139 18.5C139 19.8807 137.881 21 136.5 21C135.119 21 134 19.8807 134 18.5C134 17.1193 135.119 16 136.5 16C137.881 16 139 17.1193 139 18.5Z" fill="#0288D1"/>
</svg>
